<svg width="65" height="61" viewBox="0 0 65 61" fill="none" xmlns="http://www.w3.org/2000/svg">
<path d="M58.0573 39.2195C52.526 47.2124 43.9923 54.3623 33.3766 59.8961L32.5006 60.3519L32.4955 60.3544L31.6158 59.8961C21.0013 54.3623 12.4676 47.2124 6.93885 39.2182C2.16927 32.3235 -0.284711 24.9196 0.0263212 18.3727C0.256104 13.461 2.22386 8.86276 5.56523 5.42871C8.93326 1.968 13.3474 0.039599 17.9938 0.00151345L18.0103 0.000244141C21.9547 0.000244141 25.5525 1.42591 28.7022 4.2379C30.0746 5.46298 31.3453 6.93817 32.5006 8.64567C33.6559 6.93817 34.9267 5.46298 36.2977 4.2379C39.4487 1.42591 43.0452 0.000244141 46.9896 0.000244141L47.0061 0.00151345C51.6526 0.039599 56.0667 1.968 59.4347 5.42871C62.7774 8.86276 64.7438 13.461 64.9736 18.3753C65.2847 24.9209 62.8294 32.3235 58.0573 39.2195Z" fill="#FDC8B7"/>
<path d="M58.0574 39.2193C52.5261 47.2121 43.9924 54.3621 33.3767 59.8959L32.5007 60.3517V8.64543C33.656 6.93792 34.9268 5.46274 36.2979 4.23765C39.4488 1.42567 43.0454 0 46.9898 0L47.0063 0.00126931C51.6527 0.0393549 56.0668 1.96775 59.4348 5.42846C62.7775 8.86251 64.744 13.4607 64.9738 18.375C65.2848 24.9207 62.8295 32.3232 58.0574 39.2193V39.2193Z" fill="#D7F6F8"/>
</svg>
